<svg xmlns="http://www.w3.org/2000/svg" viewBox="0 0 24 24" width="24" height="24" fill="currentColor">
  <path d="M12 .297c-6.63 0-12 5.373-12 12 0 5.303 3.438 9.8 8.205 11.387.6.113.82-.258.82-.577 0-.285-.01-1.04-.015-2.04-3.338.724-4.042-1.61-4.042-1.61-.546-1.387-1.333-1.757-1.333-1.757-1.09-.744.083-.729.083-.729 1.205.085 1.84 1.236 1.84 1.236 1.07 1.834 2.809 1.304 3.495.997.108-.776.418-1.305.762-1.604-2.665-.3-5.466-1.332-5.466-5.93 0-1.31.468-2.381 1.235-3.221-.123-.303-.536-1.523.117-3.176 0 0 1.008-.322 3.301 1.23a11.52 11.52 0 013.003-.404c1.019.005 2.045.138 3.003.404 2.291-1.552 3.297-1.23 3.297-1.23.655 1.653.242 2.873.12 3.176.77.84 1.233 1.911 1.233 3.221 0 4.61-2.803 5.625-5.476 5.921.43.372.823 1.102.823 2.222 0 1.606-.014 2.898-.014 3.293 0 .32.216.694.825.576C20.565 22.092 24 17.592 24 12.297c0-6.627-5.373-12-12-12"/>
</svg>
